<svg width="30" height="37" viewBox="0 0 30 37" fill="none" xmlns="http://www.w3.org/2000/svg">
<path d="M9.84833 36.2093C4.4593 36.1783 0.00158691 25.1775 0.00158691 19.575C0.00158691 10.4234 6.86686 8.41982 9.51269 8.41982C10.7051 8.41982 11.9782 8.88806 13.1012 9.30242C13.8865 9.59146 14.6987 9.88983 15.1504 9.88983C15.4208 9.88983 16.0579 9.63601 16.6204 9.41331C17.82 8.93573 19.3128 8.34216 21.0512 8.34216C21.0543 8.34216 21.0584 8.34216 21.0615 8.34216C22.3595 8.34216 26.2952 8.62703 28.6613 12.1804L29.2155 13.0132L28.4179 13.6151C27.2783 14.475 25.1991 16.0434 25.1991 19.1503C25.1991 22.83 27.5539 24.2451 28.6851 24.9258C29.1845 25.2262 29.7014 25.5359 29.7014 26.2134C29.7014 26.6558 26.1708 36.1545 21.0439 36.1545C19.7894 36.1545 18.9026 35.7774 18.1204 35.4449C17.329 35.1081 16.6462 34.8181 15.5181 34.8181C14.9462 34.8181 14.2231 35.0885 13.4575 35.3755C12.4113 35.7659 11.2272 36.2093 9.88355 36.2093H9.84833Z" fill="white"/>
<path d="M21.5942 0C21.7277 4.81443 18.2847 8.15446 14.8456 7.94498C14.2789 4.1029 18.2842 0 21.5942 0Z" fill="white"/>
</svg>
