<svg width="17" height="17" viewBox="0 0 17 17" fill="none" xmlns="http://www.w3.org/2000/svg">
<path d="M0.664063 3.992V3.99353C0.664063 4.96043 1.44789 5.74426 2.4148 5.74426H4.40698C3.44008 5.74426 2.65625 4.96043 2.65625 3.99353V3.992C2.65625 3.20704 3.1787 2.51804 3.93454 2.30624L3.94015 1.74634L1.94235 2.30621C1.18651 2.51804 0.664062 3.20704 0.664063 3.992Z" fill="#CEE1F2"/>
<path fill-rule="evenodd" clip-rule="evenodd" d="M15.2343 1.66755L10.0035 0.207774C9.0088 -0.0698046 7.95739 -0.0692733 6.96306 0.209467L1.76315 1.66672C0.725024 1.95768 0 2.91383 0 3.99343C0 5.32497 1.08325 6.40822 2.4148 6.40822H14.5852C15.9167 6.40822 17 5.32497 17 3.99343C17 2.91413 16.2739 1.95764 15.2343 1.66755ZM14.5852 5.0801H2.4148C1.81561 5.0801 1.32812 4.59261 1.32812 3.9919C1.32812 3.50677 1.65438 3.07649 2.12155 2.94554L7.32142 1.48825C7.70243 1.3815 8.09436 1.32811 8.48629 1.32811C8.87659 1.32811 9.26696 1.38111 9.64647 1.48699L14.8773 2.94677C15.3452 3.07735 15.6719 3.50773 15.6719 3.99343C15.6719 4.59261 15.1844 5.0801 14.5852 5.0801ZM9.16406 13.6797C9.16406 14.0465 9.46136 14.3438 9.82812 14.3438C10.1949 14.3438 10.4922 14.0465 10.4922 13.6797V8.33401C10.4922 7.96724 10.1949 7.66994 9.82812 7.66994C9.46136 7.66994 9.16406 7.96724 9.16406 8.33401V13.6797ZM7.13867 14.3438C6.77191 14.3438 6.47461 14.0465 6.47461 13.6797V8.33401C6.47461 7.96724 6.77191 7.66994 7.13867 7.66994C7.50543 7.66994 7.80273 7.96724 7.80273 8.33401V13.6797C7.80273 14.0465 7.50543 14.3438 7.13867 14.3438ZM1.16211 13.7129C1.16211 14.0797 1.45941 14.377 1.82617 14.377C2.19293 14.377 2.49023 14.0797 2.49023 13.7129V8.33401C2.49023 7.96724 2.19293 7.66994 1.82617 7.66994C1.45941 7.66994 1.16211 7.96724 1.16211 8.33401V13.7129ZM4.51562 14.3438C4.14886 14.3438 3.85156 14.0465 3.85156 13.6797V8.33401C3.85156 7.96724 4.14886 7.66994 4.51562 7.66994C4.88239 7.66994 5.17969 7.96724 5.17969 8.33401V13.6797C5.17969 14.0465 4.88239 14.3438 4.51562 14.3438ZM10.6914 17C11.0582 17 11.3555 16.7027 11.3555 16.336C11.3555 15.9692 11.0582 15.6719 10.6914 15.6719H0.664062C0.297301 15.6719 0 15.9692 0 16.336C0 16.7027 0.297301 17 0.664062 17H10.6914Z" fill="#5866C8"/>
<path fill-rule="evenodd" clip-rule="evenodd" d="M7.66992 3.28711C7.66992 2.82867 8.04156 2.45703 8.5 2.45703C8.95844 2.45703 9.33008 2.82867 9.33008 3.28711C9.33008 3.74554 8.95844 4.11719 8.5 4.11719C8.04156 4.11719 7.66992 3.74554 7.66992 3.28711ZM16.3397 15.1981C16.7655 14.7878 17 14.2435 17 13.6656C17 12.4773 15.937 11.5106 14.6303 11.5106C13.9624 11.5106 13.5137 11.1814 13.5137 10.6914C13.5137 10.2155 13.8441 9.85661 14.2824 9.85661C14.6514 9.85661 15.1797 9.89729 15.9956 10.2146C16.3375 10.3476 16.7223 10.1782 16.8552 9.83639C16.9882 9.49457 16.8188 9.10971 16.477 8.9768C16.028 8.80218 15.6394 8.6947 15.3066 8.62893V7.90234C15.3066 7.53558 15.0093 7.23828 14.6426 7.23828C14.2758 7.23828 13.9785 7.53558 13.9785 7.90234V8.55007C12.9517 8.69763 12.1855 9.58521 12.1855 10.6914C12.1855 11.2951 12.4374 11.8462 12.8945 12.2432C13.3431 12.6328 13.9434 12.8387 14.6303 12.8387C15.2046 12.8387 15.6718 13.2097 15.6718 13.6656C15.6718 14.1139 15.2745 14.4926 14.8042 14.4926C14.4926 14.4926 13.715 14.358 12.9621 14.0587C12.6213 13.9233 12.2352 14.0896 12.0997 14.4305C11.9642 14.7713 12.1307 15.1574 12.4715 15.2929C12.9833 15.4963 13.5025 15.6376 13.9453 15.7224V16.3359C13.9453 16.7027 14.2426 17 14.6094 17C14.9761 17 15.2734 16.7027 15.2734 16.3359V15.7704C15.6707 15.684 16.0388 15.4881 16.3397 15.1981Z" fill="#FF5CF4"/>
</svg>
