<svg width="12" height="13" viewBox="0 0 12 13" fill="none" xmlns="http://www.w3.org/2000/svg">
<path fill-rule="evenodd" clip-rule="evenodd" d="M5.72317 5.3963L10.0824 1.03708C10.3995 0.719937 10.9037 0.709912 11.2085 1.01469C11.5133 1.31947 11.5032 1.82363 11.1861 2.14078L6.82687 6.5L11.1861 10.8592C11.5032 11.1764 11.5133 11.6805 11.2085 11.9853C10.9037 12.2901 10.3995 12.2801 10.0824 11.9629L5.72317 7.6037L1.36395 11.9629C1.0468 12.2801 0.542636 12.2901 0.237858 11.9853C-0.0669193 11.6805 -0.0568937 11.1764 0.260251 10.8592L4.61947 6.5L0.26025 2.14078C-0.0568939 1.82364 -0.0669195 1.31947 0.237858 1.01469C0.542636 0.709912 1.0468 0.719938 1.36395 1.03708L5.72317 5.3963Z" fill="white"/>
</svg>
