<svg width="17" height="17" viewBox="0 0 17 17" fill="none" xmlns="http://www.w3.org/2000/svg">
<path d="M2.68945 13.0156V3.98438C2.68945 2.1506 4.17599 0.664062 6.00977 0.664062H3.98438C2.1506 0.664062 0.664062 2.1506 0.664062 3.98438V13.0156C0.664062 14.8494 2.1506 16.3359 3.98438 16.3359H6.00977C4.17599 16.3359 2.68945 14.8494 2.68945 13.0156Z" fill="#CEE1F2"/>
<path fill-rule="evenodd" clip-rule="evenodd" d="M3.98438 17H13.0156C15.2126 17 17 15.2126 17 13.0156V6.87305C17 6.50629 16.7027 6.20898 16.3359 6.20898C15.9692 6.20898 15.6719 6.50629 15.6719 6.87305V13.0156C15.6719 14.4803 14.4803 15.6719 13.0156 15.6719H3.98438C2.51972 15.6719 1.32812 14.4803 1.32812 13.0156V3.98438C1.32812 2.51972 2.51972 1.32812 3.98438 1.32812H10.8906C11.2574 1.32812 11.5547 1.03082 11.5547 0.664062C11.5547 0.297301 11.2574 0 10.8906 0H3.98438C1.78739 0 0 1.78739 0 3.98438V13.0156C0 15.2126 1.78739 17 3.98438 17ZM16.5179 3.416L12.7944 7.86376C12.663 8.02065 12.4745 8.10156 12.2848 8.10156C12.1344 8.10159 11.9832 8.05079 11.8589 7.9467C11.5777 7.71126 11.5405 7.29244 11.776 7.01124L15.498 2.56517C15.7632 2.2441 15.7182 1.7671 15.3974 1.50131C15.077 1.23589 14.6006 1.27988 14.3343 1.5992L10.6753 6.09682C10.4438 6.38131 10.0256 6.42427 9.74107 6.19288C9.45655 5.96142 9.41355 5.54313 9.64501 5.25864L13.3062 0.758459L13.3099 0.753877C14.0432 -0.131086 15.3597 -0.254602 16.2447 0.47859C17.1297 1.21185 17.2532 2.52838 16.52 3.41338L16.5179 3.416Z" fill="#5866C8"/>
<path fill-rule="evenodd" clip-rule="evenodd" d="M3.94262 13.4307C4.2813 14.0055 4.9427 14.377 5.62765 14.377C6.68753 14.377 8.04069 13.9968 9.07493 13.4084C10.5027 12.5962 11.289 11.4293 11.289 10.1227C11.289 9.38177 11.0332 8.66143 10.5685 8.09439C10.0315 7.43906 9.27285 7.03395 8.43242 6.95373C7.59337 6.87358 6.77349 7.12715 6.12394 7.66756C5.22944 8.41178 4.93321 9.27921 4.6196 10.1975C4.43556 10.7366 4.24524 11.2939 3.91261 11.8942C3.64306 12.3807 3.65399 12.9407 3.94262 13.4307ZM6.9734 8.68849C7.30341 8.4139 7.70909 8.26748 8.13126 8.26748C8.1893 8.26748 8.24767 8.27023 8.30621 8.27584C8.79164 8.3222 9.23025 8.55668 9.5412 8.93616C9.81579 9.27124 9.96092 9.68157 9.96092 10.1227C9.96092 12.016 7.09838 13.0488 5.62768 13.0489C5.38576 13.0489 5.17253 12.9018 5.08694 12.7565C5.01804 12.6396 5.05466 12.5734 5.07435 12.5379C5.46406 11.8345 5.68316 11.1929 5.87647 10.6268L5.87652 10.6266C6.16055 9.79495 6.36576 9.19408 6.9734 8.68849Z" fill="#DE5CEE"/>
</svg>
