<svg width="16" height="21" viewBox="0 0 16 21" fill="none" xmlns="http://www.w3.org/2000/svg">
<path fill-rule="evenodd" clip-rule="evenodd" d="M3.375 2.58333C2.938 2.58333 2.58333 2.938 2.58333 3.375V17.625C2.58333 18.062 2.938 18.4167 3.375 18.4167H12.875C13.312 18.4167 13.6667 18.062 13.6667 17.625V8.125H10.5C9.18821 8.125 8.125 7.06179 8.125 5.75V2.58333H3.375ZM9.70833 3.70275L12.5472 6.54167H10.5C10.063 6.54167 9.70833 6.187 9.70833 5.75V3.70275ZM1 3.375C1 2.06321 2.06321 1 3.375 1H8.91667C9.12646 1 9.32833 1.08312 9.47637 1.23196L15.018 6.77362C15.1669 6.92167 15.25 7.12354 15.25 7.33333V17.625C15.25 18.9368 14.1868 20 12.875 20H3.375C2.06321 20 1 18.9368 1 17.625V3.375ZM4.95833 12.0833C4.95833 11.6463 5.313 11.2917 5.75 11.2917H8.125C8.562 11.2917 8.91667 11.6463 8.91667 12.0833C8.91667 12.5203 8.562 12.875 8.125 12.875H5.75C5.313 12.875 4.95833 12.5203 4.95833 12.0833ZM4.95833 15.25C4.95833 14.813 5.313 14.4583 5.75 14.4583H10.5C10.937 14.4583 11.2917 14.813 11.2917 15.25C11.2917 15.687 10.937 16.0417 10.5 16.0417H5.75C5.313 16.0417 4.95833 15.687 4.95833 15.25Z" fill="black"/>
<path d="M13.6667 8.125H14.1667V7.625H13.6667V8.125ZM8.125 2.58333H8.625V2.08333H8.125V2.58333ZM9.70833 3.70275L10.0619 3.3492L9.20833 2.49564V3.70275H9.70833ZM12.5472 6.54167V7.04167H13.7544L12.9008 6.18811L12.5472 6.54167ZM9.47637 1.23196L9.12188 1.58457L9.12282 1.58551L9.47637 1.23196ZM15.018 6.77362L14.6645 7.12718L14.6654 7.12812L15.018 6.77362ZM3.375 2.08333C2.66186 2.08333 2.08333 2.66186 2.08333 3.375H3.08333C3.08333 3.21414 3.21414 3.08333 3.375 3.08333V2.08333ZM2.08333 3.375V17.625H3.08333V3.375H2.08333ZM2.08333 17.625C2.08333 18.3381 2.66186 18.9167 3.375 18.9167V17.9167C3.21414 17.9167 3.08333 17.7859 3.08333 17.625H2.08333ZM3.375 18.9167H12.875V17.9167H3.375V18.9167ZM12.875 18.9167C13.5881 18.9167 14.1667 18.3381 14.1667 17.625H13.1667C13.1667 17.7859 13.0359 17.9167 12.875 17.9167V18.9167ZM14.1667 17.625V8.125H13.1667V17.625H14.1667ZM13.6667 7.625H10.5V8.625H13.6667V7.625ZM10.5 7.625C9.46435 7.625 8.625 6.78565 8.625 5.75H7.625C7.625 7.33793 8.91207 8.625 10.5 8.625V7.625ZM8.625 5.75V2.58333H7.625V5.75H8.625ZM8.125 2.08333H3.375V3.08333H8.125V2.08333ZM9.35478 4.0563L12.1937 6.89522L12.9008 6.18811L10.0619 3.3492L9.35478 4.0563ZM12.5472 6.04167H10.5V7.04167H12.5472V6.04167ZM10.5 6.04167C10.3391 6.04167 10.2083 5.91086 10.2083 5.75H9.20833C9.20833 6.46314 9.78686 7.04167 10.5 7.04167V6.04167ZM10.2083 5.75V3.70275H9.20833V5.75H10.2083ZM1.5 3.375C1.5 2.33935 2.33935 1.5 3.375 1.5V0.5C1.78707 0.5 0.5 1.78707 0.5 3.375H1.5ZM3.375 1.5H8.91667V0.5H3.375V1.5ZM8.91667 1.5C8.99466 1.5 9.06857 1.53098 9.12188 1.58457L9.83087 0.879349C9.58809 0.635275 9.25826 0.5 8.91667 0.5V1.5ZM9.12282 1.58551L14.6645 7.12718L15.3716 6.42007L9.82993 0.878405L9.12282 1.58551ZM14.6654 7.12812C14.719 7.18143 14.75 7.25534 14.75 7.33333H15.75C15.75 6.99174 15.6147 6.66191 15.3707 6.41913L14.6654 7.12812ZM14.75 7.33333V17.625H15.75V7.33333H14.75ZM14.75 17.625C14.75 18.6606 13.9106 19.5 12.875 19.5V20.5C14.4629 20.5 15.75 19.2129 15.75 17.625H14.75ZM12.875 19.5H3.375V20.5H12.875V19.5ZM3.375 19.5C2.33935 19.5 1.5 18.6606 1.5 17.625H0.5C0.5 19.2129 1.78707 20.5 3.375 20.5V19.5ZM1.5 17.625V3.375H0.5V17.625H1.5ZM5.45833 12.0833C5.45833 11.9225 5.58914 11.7917 5.75 11.7917V10.7917C5.03686 10.7917 4.45833 11.3702 4.45833 12.0833H5.45833ZM5.75 11.7917H8.125V10.7917H5.75V11.7917ZM8.125 11.7917C8.28586 11.7917 8.41667 11.9225 8.41667 12.0833H9.41667C9.41667 11.3702 8.83814 10.7917 8.125 10.7917V11.7917ZM8.41667 12.0833C8.41667 12.2442 8.28586 12.375 8.125 12.375V13.375C8.83814 13.375 9.41667 12.7965 9.41667 12.0833H8.41667ZM8.125 12.375H5.75V13.375H8.125V12.375ZM5.75 12.375C5.58914 12.375 5.45833 12.2442 5.45833 12.0833H4.45833C4.45833 12.7965 5.03686 13.375 5.75 13.375V12.375ZM5.45833 15.25C5.45833 15.0891 5.58914 14.9583 5.75 14.9583V13.9583C5.03686 13.9583 4.45833 14.5369 4.45833 15.25H5.45833ZM5.75 14.9583H10.5V13.9583H5.75V14.9583ZM10.5 14.9583C10.6609 14.9583 10.7917 15.0891 10.7917 15.25H11.7917C11.7917 14.5369 11.2131 13.9583 10.5 13.9583V14.9583ZM10.7917 15.25C10.7917 15.4109 10.6609 15.5417 10.5 15.5417V16.5417C11.2131 16.5417 11.7917 15.9631 11.7917 15.25H10.7917ZM10.5 15.5417H5.75V16.5417H10.5V15.5417ZM5.75 15.5417C5.58914 15.5417 5.45833 15.4109 5.45833 15.25H4.45833C4.45833 15.9631 5.03686 16.5417 5.75 16.5417V15.5417Z" fill="#131415"/>
</svg>
