<svg width="22" height="22" viewBox="0 0 22 22" fill="none" xmlns="http://www.w3.org/2000/svg">
<path fill-rule="evenodd" clip-rule="evenodd" d="M1.80078 1H20.2374C20.6687 1 21.0185 1.34973 21.0185 1.78125C21.0185 3.95685 20.0858 6.03387 18.4597 7.47934L15.0384 10.5204C14.4451 11.0478 14.1049 11.8055 14.1049 12.5994V17.145C14.1049 17.4062 13.9742 17.6501 13.757 17.795L9.14774 20.8677C8.62909 21.2136 7.93329 20.8404 7.93329 20.2178V12.5994C7.93329 11.8055 7.59302 11.0478 6.99976 10.5204L3.57828 7.47934C1.95215 6.03387 1.01953 3.95685 1.01953 1.78125C1.01953 1.34973 1.36926 1 1.80078 1ZM14.0003 9.35266L17.4217 6.31143C18.5183 5.3367 19.2181 4.00095 19.4055 2.56235H2.63254C2.81992 4.00095 3.51984 5.3367 4.61633 6.31158L8.03766 9.35266C8.96417 10.1763 9.49564 11.3596 9.49564 12.5994V18.758L12.5424 16.7269V12.5993C12.5424 11.3596 13.0738 10.1763 14.0003 9.35266Z" fill="#777E90"/>
<path d="M18.4597 7.47934L18.7919 7.85305L18.7919 7.85304L18.4597 7.47934ZM15.0384 10.5204L14.7062 10.1467L14.7062 10.1467L15.0384 10.5204ZM13.757 17.795L14.0343 18.2111L14.0344 18.211L13.757 17.795ZM9.14774 20.8677L8.8704 20.4517L8.8703 20.4517L9.14774 20.8677ZM6.99976 10.5204L7.33194 10.1467L7.33192 10.1467L6.99976 10.5204ZM3.57828 7.47934L3.24609 7.85304L3.24611 7.85306L3.57828 7.47934ZM17.4217 6.31143L17.0895 5.93772L17.0895 5.93773L17.4217 6.31143ZM14.0003 9.35266L13.6682 8.97896L13.6681 8.97898L14.0003 9.35266ZM19.4055 2.56235L19.9013 2.62693L19.9748 2.06235H19.4055V2.56235ZM2.63254 2.56235V2.06235H2.06319L2.13673 2.62693L2.63254 2.56235ZM4.61633 6.31158L4.28411 6.68525L4.28416 6.68529L4.61633 6.31158ZM8.03766 9.35266L8.36986 8.97898L8.36983 8.97895L8.03766 9.35266ZM9.49564 18.758H8.99564V19.6923L9.77298 19.1741L9.49564 18.758ZM12.5424 16.7269L12.8197 17.143L13.0424 16.9945V16.7269H12.5424ZM20.2374 0.5H1.80078V1.5H20.2374V0.5ZM21.5185 1.78125C21.5185 1.07365 20.9449 0.5 20.2374 0.5V1.5C20.3925 1.5 20.5185 1.62581 20.5185 1.78125H21.5185ZM18.7919 7.85304C20.5248 6.31269 21.5185 4.09965 21.5185 1.78125H20.5185C20.5185 3.81404 19.6469 5.75506 18.1275 7.10564L18.7919 7.85304ZM15.3706 10.8941L18.7919 7.85305L18.1275 7.10563L14.7062 10.1467L15.3706 10.8941ZM14.6049 12.5994C14.6049 11.9483 14.8841 11.3266 15.3706 10.8941L14.7062 10.1467C14.0062 10.769 13.6049 11.6627 13.6049 12.5994H14.6049ZM14.6049 17.145V12.5994H13.6049V17.145H14.6049ZM14.0344 18.211C14.3906 17.9734 14.6049 17.5736 14.6049 17.145H13.6049C13.6049 17.2389 13.5579 17.3268 13.4795 17.3791L14.0344 18.211ZM9.42508 21.2837L14.0343 18.2111L13.4796 17.379L8.8704 20.4517L9.42508 21.2837ZM7.43329 20.2178C7.43329 21.2392 8.57377 21.8515 9.42517 21.2837L8.8703 20.4517C8.68441 20.5757 8.43329 20.4416 8.43329 20.2178H7.43329ZM7.43329 12.5994V20.2178H8.43329V12.5994H7.43329ZM6.66757 10.8941C7.15408 11.3266 7.43329 11.9483 7.43329 12.5994H8.43329C8.43329 11.6627 8.03196 10.769 7.33194 10.1467L6.66757 10.8941ZM3.24611 7.85306L6.66759 10.8941L7.33192 10.1467L3.91044 7.10562L3.24611 7.85306ZM0.519531 1.78125C0.519531 4.09965 1.51321 6.31269 3.24609 7.85304L3.91046 7.10564C2.39108 5.75506 1.51953 3.81404 1.51953 1.78125H0.519531ZM1.80078 0.5C1.09312 0.5 0.519531 1.07359 0.519531 1.78125H1.51953C1.51953 1.62587 1.64541 1.5 1.80078 1.5V0.5ZM17.0895 5.93773L13.6682 8.97896L14.3325 9.72636L17.7538 6.68513L17.0895 5.93773ZM18.9096 2.49777C18.7377 3.81786 18.0955 5.04356 17.0895 5.93772L17.7538 6.68515C18.9411 5.62984 19.6985 4.18403 19.9013 2.62693L18.9096 2.49777ZM2.63254 3.06235H19.4055V2.06235H2.63254V3.06235ZM4.94856 5.93792C3.94263 5.04356 3.30029 3.81783 3.12835 2.49777L2.13673 2.62693C2.33954 4.18406 3.09704 5.62984 4.28411 6.68525L4.94856 5.93792ZM8.36983 8.97895L4.94851 5.93787L4.28416 6.68529L7.70548 9.72637L8.36983 8.97895ZM9.99564 12.5994C9.99564 11.2168 9.40309 9.89751 8.36986 8.97898L7.70545 9.72635C8.52526 10.4552 8.99564 11.5025 8.99564 12.5994H9.99564ZM9.99564 18.758V12.5994H8.99564V18.758H9.99564ZM12.265 16.3109L9.21829 18.342L9.77298 19.1741L12.8197 17.143L12.265 16.3109ZM12.0424 12.5993V16.7269H13.0424V12.5993H12.0424ZM13.6681 8.97898C12.6349 9.8975 12.0424 11.2168 12.0424 12.5993H13.0424C13.0424 11.5025 13.5127 10.4552 14.3325 9.72635L13.6681 8.97898Z" fill="#777E90"/>
</svg>
