<svg width="17" height="17" viewBox="0 0 17 17" fill="none" xmlns="http://www.w3.org/2000/svg">
<path fill-rule="evenodd" clip-rule="evenodd" d="M13.9091 1.54545C13.056 1.54545 12.3636 2.23782 12.3636 3.09091C12.3636 3.3405 12.4224 3.57464 12.5259 3.78173C12.7809 4.29018 13.3048 4.63636 13.9091 4.63636C14.7622 4.63636 15.4545 3.944 15.4545 3.09091C15.4545 2.23782 14.7622 1.54545 13.9091 1.54545ZM10.8182 3.09091C10.8182 1.38395 12.2021 0 13.9091 0C15.616 0 17 1.38395 17 3.09091C17 4.79786 15.616 6.18182 13.9091 6.18182C12.978 6.18182 12.1442 5.76995 11.5778 5.12009L6.11382 7.85245C6.15864 8.06186 6.18182 8.27823 6.18182 8.5C6.18182 8.72177 6.15864 8.93814 6.11382 9.14755L11.5778 11.8799C12.1442 11.23 12.978 10.8182 13.9091 10.8182C15.616 10.8182 17 12.2021 17 13.9091C17 15.616 15.616 17 13.9091 17C12.2021 17 10.8182 15.616 10.8182 13.9091C10.8182 13.6873 10.8414 13.471 10.8862 13.2615L5.42223 10.5292C4.85582 11.179 4.02205 11.5909 3.09091 11.5909C1.38395 11.5909 0 10.207 0 8.5C0 6.79305 1.38395 5.40909 3.09091 5.40909C4.02205 5.40909 4.85582 5.82095 5.42223 6.47082L10.8862 3.73845C10.8414 3.52905 10.8182 3.31268 10.8182 3.09091ZM3.09091 6.95455C2.23782 6.95455 1.54545 7.64691 1.54545 8.5C1.54545 9.35309 2.23782 10.0455 3.09091 10.0455C3.69441 10.0455 4.21909 9.69927 4.47409 9.19082C4.57764 8.98373 4.63636 8.74959 4.63636 8.5C4.63636 8.25041 4.57764 8.01627 4.47409 7.80918C4.21909 7.30073 3.69441 6.95455 3.09091 6.95455ZM13.9091 12.3636C13.3048 12.3636 12.7809 12.7098 12.5259 13.2183C12.4224 13.4254 12.3636 13.6595 12.3636 13.9091C12.3636 14.7622 13.056 15.4545 13.9091 15.4545C14.7622 15.4545 15.4545 14.7622 15.4545 13.9091C15.4545 13.056 14.7622 12.3636 13.9091 12.3636Z" fill="#6D7278"/>
</svg>
