<svg width="18" height="18" viewBox="0 0 18 18" fill="none" xmlns="http://www.w3.org/2000/svg">
<path fill-rule="evenodd" clip-rule="evenodd" d="M7.64045 0.84574C8.19594 -0.281913 9.80406 -0.281913 10.3595 0.84574L12.3254 4.83345L16.7064 5.4867C17.9417 5.67085 18.4365 7.18651 17.5476 8.06408L14.3776 11.1947L15.1149 15.5992C15.3226 16.836 14.0237 17.7749 12.915 17.1906L9 15.1309L5.08504 17.1906C3.97634 17.7749 2.67741 16.836 2.88506 15.5992L3.62243 11.1947L0.452423 8.06408C-0.436513 7.18651 0.0583503 5.67085 1.29362 5.4867L5.67388 4.83345L7.64045 0.84574ZM9 1.51566L6.68255 6.21497L1.51718 6.98569L5.24722 10.6695L4.3795 15.8493L9 13.4174L13.6205 15.8493L12.7528 10.6695L16.4828 6.98569L11.3174 6.21497L9 1.51566Z" fill="#6D7278"/>
</svg>
