<svg width="19" height="19" viewBox="0 0 19 19" fill="none" xmlns="http://www.w3.org/2000/svg">
<path d="M4.12846 18.2422C2.23105 18.0777 0.742188 16.4856 0.742188 14.5456V8.30109C0.742188 7.14361 1.28228 6.05241 2.20263 5.35045L7.2495 1.50113C8.57861 0.487415 10.4214 0.487415 11.7505 1.50113L12.0919 1.76153C11.1805 1.67158 10.2428 1.91828 9.4761 2.50309L3.47388 7.08105C3.15556 7.32382 2.96875 7.70126 2.96875 8.10159V15.5475C2.96875 16.6087 3.41432 17.5658 4.12846 18.2422Z" fill="#CEE1F2"/>
<path d="M14.5469 18.9986H4.45312C1.99767 18.9986 0 17.0009 0 14.5455V8.30103C0 6.9209 0.655166 5.59724 1.75253 4.76024L6.7994 0.910921C8.3895 -0.30185 10.6105 -0.30185 12.2006 0.910921L13.8047 2.1333V1.18609C13.8047 0.776177 14.137 0.4439 14.5469 0.4439C14.9568 0.4439 15.2891 0.776177 15.2891 1.18609V3.632C15.2891 3.91415 15.1291 4.17187 14.8762 4.29711C14.6234 4.42232 14.3214 4.3933 14.097 4.22234L11.3006 2.09141C10.2403 1.28272 8.75959 1.28272 7.69956 2.09122L2.65269 5.94054C1.92115 6.49848 1.48438 7.3809 1.48438 8.30103V14.5455C1.48438 16.1824 2.81616 17.5142 4.45312 17.5142H14.5469C16.1838 17.5142 17.5156 16.1824 17.5156 14.5455V8.30103C17.5156 7.36962 17.0838 6.48419 16.3604 5.93245C16.0345 5.68386 15.9718 5.21813 16.2204 4.89224C16.469 4.56631 16.9348 4.50363 17.2606 4.75222C18.3498 5.58288 19 6.90954 19 8.30103V14.5455C19 17.0009 17.0023 18.9986 14.5469 18.9986Z" fill="#5866C8"/>
<path fill-rule="evenodd" clip-rule="evenodd" d="M8.01562 10.4263C8.52799 10.4263 8.94336 10.0109 8.94336 9.49854C8.94336 8.98617 8.52799 8.5708 8.01562 8.5708C7.50326 8.5708 7.08789 8.98617 7.08789 9.49854C7.08789 10.0109 7.50326 10.4263 8.01562 10.4263ZM10.0566 9.49857C10.0566 8.9862 10.472 8.57084 10.9844 8.57084C11.4967 8.57084 11.9121 8.98617 11.9121 9.49857C11.9121 10.0109 11.4967 10.4263 10.9844 10.4263C10.472 10.4263 10.0566 10.0109 10.0566 9.49857ZM8.01562 11.5396C7.50326 11.5396 7.08789 11.955 7.08789 12.4673C7.08789 12.9797 7.50326 13.3951 8.01562 13.3951C8.52799 13.3951 8.94336 12.9797 8.94336 12.4673C8.94336 11.9549 8.52799 11.5396 8.01562 11.5396ZM10.0566 12.4673C10.0566 11.955 10.472 11.5396 10.9844 11.5396C11.4967 11.5396 11.9121 11.9549 11.9121 12.4673C11.9121 12.9797 11.4967 13.3951 10.9844 13.3951C10.472 13.3951 10.0566 12.9797 10.0566 12.4673Z" fill="#DF5CF0"/>
</svg>
