<svg width="20" height="20" viewBox="0 0 20 20" fill="none" xmlns="http://www.w3.org/2000/svg">
<path d="M18.6271 1.37297C16.7964 -0.457651 13.8286 -0.457651 11.9979 1.37293L8.0802 5.29067C6.18664 7.1843 6.36195 10.2015 8.0802 11.9198C8.36793 12.2075 8.68629 12.4422 9.02246 12.6348L9.7375 11.9198C10.2065 11.4507 10.0414 10.9024 10.033 10.5068C9.93004 10.4338 9.82992 10.3549 9.7375 10.2625C8.85574 9.38083 8.81609 7.86934 9.7375 6.94793C9.87434 6.8111 13.5721 3.11333 13.6552 3.03028C14.5692 2.11625 16.0557 2.11625 16.9697 3.03028C17.8838 3.9443 17.8838 5.43083 16.9697 6.34485L14.3802 8.93442C14.455 9.34875 14.9045 10.3302 14.6733 11.9493C14.6846 11.9382 14.6981 11.9311 14.7093 11.9198L18.6271 8.00211C20.4576 6.17149 20.4576 3.2036 18.6271 1.37297Z" fill="white"/>
<path d="M12.2233 7.77656C11.9356 7.48883 11.6172 7.25422 11.2812 7.06152L10.5661 7.77656C10.0971 8.24555 10.2621 8.79387 10.2706 9.18953C10.3736 9.2625 10.4737 9.34137 10.5661 9.43379C11.4479 10.3155 11.4875 11.827 10.5661 12.7484C10.429 12.8855 6.4249 16.8896 6.34479 16.9697C5.43076 17.8837 3.94424 17.8837 3.03021 16.9697C2.11619 16.0557 2.11619 14.5691 3.03021 13.6551L5.92346 10.7619C5.84857 10.3475 5.39912 9.36605 5.63033 7.74699C5.61904 7.75809 5.60545 7.76531 5.5942 7.77652L1.37291 11.9979C-0.457637 13.8285 -0.457637 16.7964 1.37291 18.627C3.20354 20.4576 6.17139 20.4576 8.00201 18.627L12.2233 14.4057C14.0818 12.5473 13.9802 9.5334 12.2233 7.77656Z" fill="white"/>
</svg>
