<svg width="18" height="19" viewBox="0 0 18 19" fill="none" xmlns="http://www.w3.org/2000/svg">
<path fill-rule="evenodd" clip-rule="evenodd" d="M18 15.0233C18 15.5113 17.6043 15.907 17.1163 15.907H0.88372C0.395655 15.907 0 15.5113 0 15.0233C0 14.5352 0.395656 14.1395 0.883721 14.1395H0.9V7.98088C0.9 3.57288 4.527 0 9 0C13.473 0 17.1 3.57288 17.1 7.98088V14.1395H17.1163C17.6043 14.1395 18 14.5352 18 15.0233ZM15.3 14.1395V7.98088C15.3 4.5494 12.4794 1.76744 9 1.76744C5.5206 1.76744 2.7 4.5494 2.7 7.98088V14.1395H15.3ZM7.75 16.7907C7.19772 16.7907 6.73121 17.2608 6.97604 17.7558C7.08449 17.9751 7.23013 18.1773 7.40901 18.3529C7.83097 18.7672 8.40326 19 9 19C9.59674 19 10.169 18.7672 10.591 18.3529C10.7699 18.1773 10.9155 17.9751 11.024 17.7558C11.2688 17.2608 10.8023 16.7907 10.25 16.7907H7.75Z" fill="#777E91"/>
</svg>
