<svg width="19" height="19" viewBox="0 0 19 19" fill="none" xmlns="http://www.w3.org/2000/svg">
<path d="M2.96875 9.5C2.96875 5.04034 6.30214 1.35924 10.6133 0.812324C10.2487 0.766049 9.87714 0.742188 9.5 0.742188C4.6632 0.742188 0.742188 4.6632 0.742188 9.5C0.742188 14.3368 4.6632 18.2578 9.5 18.2578C9.87714 18.2578 10.2487 18.234 10.6133 18.1877C6.30214 17.6408 2.96875 13.9597 2.96875 9.5Z" fill="#CEE1F2"/>
<path fill-rule="evenodd" clip-rule="evenodd" d="M2.78246 16.2175C4.57681 18.0118 6.96246 19 9.5 19C12.0375 19 14.4232 18.0118 16.2175 16.2175C18.0118 14.4232 19 12.0375 19 9.5C19 6.96246 18.0118 4.57681 16.2175 2.78246C14.4232 0.988186 12.0375 0 9.5 0C6.96246 0 4.57681 0.988186 2.78246 2.78246C0.988186 4.57681 0 6.96246 0 9.5C0 12.0375 0.988186 14.4232 2.78246 16.2175ZM1.48438 9.5C1.48438 5.08016 5.08016 1.48438 9.5 1.48438C13.9198 1.48438 17.5156 5.08016 17.5156 9.5C17.5156 13.9198 13.9198 17.5156 9.5 17.5156C5.08016 17.5156 1.48438 13.9198 1.48438 9.5ZM10.9844 12.4688C8.52892 12.4688 6.53125 10.4711 6.53125 8.01562C6.53125 5.56017 8.52892 3.5625 10.9844 3.5625C13.4398 3.5625 15.4375 5.56017 15.4375 8.01562C15.4375 10.4711 13.4398 12.4688 10.9844 12.4688ZM8.01562 8.01562C8.01562 6.37866 9.34741 5.04688 10.9844 5.04688C12.6213 5.04688 13.9531 6.37866 13.9531 8.01562C13.9531 9.65259 12.6213 10.9844 10.9844 10.9844C9.34741 10.9844 8.01562 9.65259 8.01562 8.01562Z" fill="#5866C8"/>
<path fill-rule="evenodd" clip-rule="evenodd" d="M10.9844 6.49414C11.8233 6.49414 12.5058 7.17669 12.5058 8.01562C12.5058 8.42554 12.1736 8.75781 11.7637 8.75781C11.3537 8.75781 11.0215 8.42554 11.0215 8.01562C11.0215 7.99514 11.0048 7.97852 10.9844 7.97852C10.5744 7.97852 10.2422 7.64624 10.2422 7.23633C10.2422 6.82642 10.5744 6.49414 10.9844 6.49414ZM4.73759 14.1367C4.88306 14.2863 5.07621 14.3613 5.26959 14.3613C5.4561 14.3613 5.64283 14.2914 5.78711 14.1511L7.16016 12.8152C7.45392 12.5293 7.46038 12.0594 7.17452 11.7656C6.88867 11.4719 6.41883 11.4655 6.125 11.7512L4.75195 13.0872C4.45819 13.373 4.45173 13.8429 4.73759 14.1367Z" fill="#DE5CEE"/>
</svg>
