<svg width="13" height="13" viewBox="0 0 13 13" fill="none" xmlns="http://www.w3.org/2000/svg">
<path fill-rule="evenodd" clip-rule="evenodd" d="M6 6V1.75C6 1.33579 6.33579 1 6.75 1C7.16421 1 7.5 1.33579 7.5 1.75V6H11.75C12.1642 6 12.5 6.33579 12.5 6.75C12.5 7.16421 12.1642 7.5 11.75 7.5H7.5V11.75C7.5 12.1642 7.16421 12.5 6.75 12.5C6.33579 12.5 6 12.1642 6 11.75V7.5H1.75C1.33579 7.5 1 7.16421 1 6.75C1 6.33579 1.33579 6 1.75 6H6Z" fill="white"/>
<path d="M6 6V6.5H6.5V6H6ZM7.5 6H7V6.5H7.5V6ZM7.5 7.5V7H7V7.5H7.5ZM6 7.5H6.5V7H6V7.5ZM5.5 1.75V6H6.5V1.75H5.5ZM6.75 0.5C6.05964 0.5 5.5 1.05964 5.5 1.75H6.5C6.5 1.61193 6.61193 1.5 6.75 1.5V0.5ZM8 1.75C8 1.05964 7.44036 0.5 6.75 0.5V1.5C6.88807 1.5 7 1.61193 7 1.75H8ZM8 6V1.75H7V6H8ZM11.75 5.5H7.5V6.5H11.75V5.5ZM13 6.75C13 6.05964 12.4404 5.5 11.75 5.5V6.5C11.8881 6.5 12 6.61193 12 6.75H13ZM11.75 8C12.4404 8 13 7.44036 13 6.75H12C12 6.88807 11.8881 7 11.75 7V8ZM7.5 8H11.75V7H7.5V8ZM8 11.75V7.5H7V11.75H8ZM6.75 13C7.44036 13 8 12.4404 8 11.75H7C7 11.8881 6.88807 12 6.75 12V13ZM5.5 11.75C5.5 12.4404 6.05964 13 6.75 13V12C6.61193 12 6.5 11.8881 6.5 11.75H5.5ZM5.5 7.5V11.75H6.5V7.5H5.5ZM1.75 8H6V7H1.75V8ZM0.5 6.75C0.5 7.44036 1.05964 8 1.75 8V7C1.61193 7 1.5 6.88807 1.5 6.75H0.5ZM1.75 5.5C1.05964 5.5 0.5 6.05964 0.5 6.75H1.5C1.5 6.61193 1.61193 6.5 1.75 6.5V5.5ZM6 5.5H1.75V6.5H6V5.5Z" fill="white"/>
</svg>
