<svg width="18" height="19" viewBox="0 0 18 19" fill="none" xmlns="http://www.w3.org/2000/svg">
<path d="M10.0938 16.7734V16.7399C10.0938 16.6945 10.0968 16.6497 10.1011 16.6052C9.87199 16.3982 9.59976 16.238 9.29924 16.1402C9.21189 15.6329 9.01636 15.1498 8.72134 14.7187C8.31102 14.1192 7.73642 13.6619 7.05951 13.396C6.66266 13.2403 6.29216 13.0244 5.95829 12.7545C5.44403 12.3388 4.8341 12.0742 4.18424 11.983C4.44133 11.3822 4.52913 10.7283 4.43821 10.0788C4.41116 9.88553 4.39747 9.6877 4.39747 9.49072C4.39747 9.28551 4.41239 9.07929 4.44181 8.87805C4.53689 8.22871 4.45328 7.57447 4.20005 6.97178C4.83577 6.88631 5.45204 6.62996 5.98148 6.20818C6.30879 5.94741 6.67097 5.73804 7.05788 5.58593C7.73397 5.32019 8.3082 4.8637 8.71867 4.26591C9.01135 3.83963 9.20647 3.36233 9.29572 2.86095C9.59846 2.76294 9.87262 2.60174 10.1031 2.39311C10.0975 2.34309 10.0938 2.29265 10.0938 2.24148V2.22656C10.0938 1.40678 9.42916 0.742188 8.60938 0.742188C7.7896 0.742188 7.12501 1.40678 7.12501 2.22656C7.12501 2.79653 6.77377 3.30526 6.24332 3.51378C5.64438 3.74923 5.08945 4.07212 4.59411 4.46671C4.14932 4.82106 3.53653 4.87621 3.04205 4.59537L2.99948 4.57121C2.28439 4.16831 1.3768 4.4191 0.972346 5.13145C0.567854 5.84376 0.819641 6.74786 1.53474 7.15079L1.54669 7.15758C2.04128 7.4385 2.32112 7.99284 2.23874 8.55564C2.19406 8.8609 2.1709 9.1731 2.1709 9.49076C2.1709 9.79506 2.19213 10.0944 2.23314 10.3874C2.31107 10.9441 2.03505 11.4909 1.54621 11.7685L1.53474 11.775C0.819641 12.178 0.567854 13.0821 0.972346 13.7944C1.37684 14.5067 2.28439 14.7576 2.99948 14.3546L3.0016 14.3534C3.49812 14.0714 4.11451 14.1272 4.55856 14.4862C5.06347 14.8943 5.63147 15.2275 6.2457 15.4687C6.77532 15.6766 7.12501 16.1859 7.12501 16.7549V16.7734C7.12501 17.5932 7.7896 18.2578 8.60938 18.2578C9.42916 18.2578 10.0938 17.5932 10.0938 16.7734Z" fill="#CEE1F2"/>
<path fill-rule="evenodd" clip-rule="evenodd" d="M6.38283 16.7734C6.38283 18.0012 7.38167 19 8.60939 19C9.83712 19 10.836 18.0012 10.836 16.7734V16.7399C10.836 16.4771 10.995 16.2439 11.2413 16.1458C11.9123 15.8784 12.538 15.5111 13.101 15.0542C13.3129 14.8823 13.5986 14.8557 13.8291 14.9866L13.855 15.0012C14.9243 15.6038 16.2866 15.2267 16.8918 14.1609C17.1853 13.644 17.2595 13.0441 17.1007 12.4717C16.9417 11.8986 16.5684 11.4218 16.0495 11.129L16.0047 11.1036C15.78 10.9759 15.652 10.7216 15.6864 10.4706C15.7306 10.1479 15.753 9.81825 15.753 9.49072C15.753 9.14583 15.7281 8.79878 15.679 8.45912C15.6428 8.20934 15.7708 7.95503 15.9975 7.82629L16.0484 7.79738C16.5679 7.5047 16.9416 7.02766 17.1007 6.4541C17.2595 5.88165 17.1853 5.28178 16.8918 4.76499C16.2866 3.6991 14.9243 3.32214 13.8528 3.92584L13.7877 3.9628C13.5595 4.09238 13.2753 4.06667 13.0636 3.89723C12.5111 3.45492 11.8989 3.09811 11.2439 2.83675C10.996 2.73786 10.836 2.50421 10.836 2.24148V2.22656C10.836 0.998836 9.83712 0 8.60939 0C7.38167 0 6.38283 0.998836 6.38283 2.22656C6.38283 2.49074 6.22148 2.72487 5.97173 2.82302C5.30948 3.08334 4.69038 3.44104 4.13159 3.88621C3.9204 4.05446 3.63659 4.07947 3.40844 3.94988L3.3638 3.92454C2.2946 3.32211 0.932205 3.69899 0.326951 4.76492C0.0334902 5.28174 -0.0406914 5.88161 0.1181 6.45406C0.277225 7.02763 0.650916 7.50467 1.168 7.79601L1.18013 7.80291C1.41132 7.93421 1.54162 8.19349 1.50436 8.44817C1.45415 8.79136 1.42869 9.14212 1.42869 9.49069C1.42869 9.82478 1.45203 10.161 1.49809 10.4902C1.53312 10.7407 1.40516 10.995 1.17961 11.1231L1.17037 11.1284C0.650916 11.4211 0.277225 11.8981 0.1181 12.4717C-0.0406914 13.0441 0.0334902 13.644 0.326951 14.1608C0.932168 15.2267 2.29456 15.6038 3.3638 15.0012L3.36814 14.9988C3.59796 14.8682 3.8821 14.8937 4.09199 15.0633C4.66177 15.5239 5.29508 15.8927 5.97448 16.1595C6.22255 16.2569 6.38283 16.4906 6.38283 16.7548V16.7734ZM5.02515 13.9089C4.63271 13.5917 4.1589 13.4298 3.68234 13.4298C3.32361 13.4298 2.96335 13.5216 2.63519 13.7079C2.27653 13.9099 1.82016 13.7843 1.61776 13.4278C1.52054 13.2566 1.49593 13.0579 1.54852 12.8685C1.6014 12.6779 1.7259 12.5192 1.90135 12.4203L1.91278 12.4138C2.67442 11.9813 3.08867 11.1454 2.96821 10.2845C2.93166 10.0233 2.91314 9.7562 2.91314 9.49069C2.91314 9.21378 2.93333 8.93531 2.97315 8.66307C3.09835 7.8077 2.67237 6.94331 1.91345 6.51229L1.89909 6.50416C1.72586 6.40656 1.60136 6.24785 1.54848 6.05729C1.49593 5.86781 1.52054 5.66916 1.61776 5.4979C1.82023 5.14139 2.27657 5.01578 2.63311 5.21665L2.67557 5.24073C3.4339 5.67139 4.3685 5.59543 5.05658 5.04721C5.49966 4.69426 5.99025 4.41071 6.51486 4.20449C7.33636 3.88157 7.86721 3.10516 7.86721 2.22656C7.86721 1.81732 8.20015 1.48438 8.60939 1.48438C9.01863 1.48438 9.35158 1.81732 9.35158 2.22656V2.24148C9.35158 3.11526 9.87842 3.8901 10.6938 4.21544C11.2127 4.42251 11.6979 4.70532 12.136 5.05604C12.8249 5.60752 13.7608 5.68508 14.5208 5.25357L14.5836 5.21784C14.9422 5.01589 15.3986 5.14143 15.6011 5.49798C15.6983 5.6692 15.7229 5.86785 15.6703 6.05733C15.6175 6.24792 15.493 6.4066 15.3175 6.50546L15.2644 6.53559C14.5106 6.96369 14.0869 7.82214 14.2098 8.67172C14.2488 8.94117 14.2686 9.21671 14.2686 9.49072C14.2686 9.75112 14.2508 10.013 14.2157 10.2692C14.0979 11.129 14.5124 11.9631 15.2716 12.3943L15.3174 12.4204L15.3197 12.4216C15.4929 12.5192 15.6174 12.6779 15.6703 12.8685C15.7229 13.058 15.6982 13.2566 15.601 13.4279C15.3986 13.7844 14.9423 13.91 14.5856 13.7091L14.5619 13.6957C13.7961 13.2608 12.8555 13.3416 12.1656 13.9016C11.7192 14.2639 11.2233 14.555 10.6917 14.7669C9.87761 15.0913 9.35158 15.8658 9.35158 16.7399V16.7734C9.35158 17.1827 9.01863 17.5156 8.60939 17.5156C8.20015 17.5156 7.86721 17.1827 7.86721 16.7734V16.7548C7.86721 15.8759 7.33725 15.0998 6.51702 14.7778C5.97886 14.5665 5.47695 14.2742 5.02515 13.9089Z" fill="#5866C8"/>
<path fill-rule="evenodd" clip-rule="evenodd" d="M4.71289 9.5C4.71289 11.6485 6.46085 13.3965 8.60938 13.3965C10.7579 13.3965 12.5059 11.6485 12.5059 9.5C12.5059 7.35148 10.7579 5.60352 8.60938 5.60352C6.46085 5.60352 4.71289 7.35148 4.71289 9.5ZM6.19727 9.5C6.19727 8.16996 7.27934 7.08789 8.60938 7.08789C9.93941 7.08789 11.0215 8.16996 11.0215 9.5C11.0215 10.83 9.93941 11.9121 8.60938 11.9121C7.27934 11.9121 6.19727 10.83 6.19727 9.5Z" fill="#FF5CF4"/>
</svg>
