<svg width="17" height="19" viewBox="0 0 17 19" fill="none" xmlns="http://www.w3.org/2000/svg">
<path d="M8.70473 11.5781L3.06195 6.94902C3.03891 6.93032 2.96866 6.87332 2.96866 6.7539C2.96866 6.63448 3.03891 6.57752 3.06195 6.55878L8.70473 1.91112C9.05375 1.62787 9.48162 1.48622 9.90945 1.48622C10.2366 1.48622 10.5635 1.56931 10.8554 1.73489L10.7718 1.66702C9.25232 0.433911 7.07559 0.433911 5.55615 1.66702L1.65889 4.82992C0.43654 5.82193 0.43654 7.68582 1.65889 8.67783L5.55619 11.8408C7.07563 13.0739 9.25235 13.0739 10.7718 11.8408L10.946 11.6994C10.2605 12.1408 9.34862 12.1006 8.70473 11.5781Z" fill="#CEE1F2"/>
<path d="M8.164 13.5078C7.04742 13.5078 5.95521 13.1205 5.08849 12.4171L1.19119 9.25415C0.434156 8.63973 -6.10352e-05 7.72844 -6.10352e-05 6.75391C-6.10352e-05 5.77938 0.434119 4.86808 1.19119 4.25366L5.08849 1.09076C5.95521 0.387348 7.04742 0 8.164 0C9.28059 0 10.3728 0.387348 11.2395 1.09076L15.1368 4.25366C16.1328 5.06194 16.5539 6.38359 16.2099 7.62074C16.1001 8.01562 15.6911 8.24682 15.296 8.13694C14.9011 8.02713 14.67 7.61796 14.7798 7.22304C14.9655 6.55526 14.7385 5.84213 14.2014 5.40624L10.3041 2.2433C9.06405 1.23693 7.26395 1.23693 6.0239 2.2433L2.1266 5.40624C1.71844 5.73748 1.48431 6.2287 1.48431 6.75391C1.48431 7.27912 1.71844 7.77033 2.1266 8.10157L6.0239 11.2645C7.2618 12.2691 9.05789 12.2709 10.2978 11.2696L10.9488 10.7159C11.261 10.4503 11.7294 10.4881 11.995 10.8003C12.2605 11.1126 12.2227 11.581 11.9105 11.8465L11.2527 12.4061C11.2483 12.4098 11.2439 12.4134 11.2395 12.417C10.3728 13.1205 9.28059 13.5078 8.164 13.5078Z" fill="#5866C8"/>
<path d="M8.16399 19C7.0474 19 5.9552 18.6127 5.08847 17.9092L1.19117 14.7463C0.278615 14.0057 -0.15794 12.8263 0.0518025 11.6685C0.124908 11.2651 0.511328 10.9975 0.91441 11.0705C1.31771 11.1436 1.58546 11.5298 1.51239 11.9331C1.39917 12.5581 1.63452 13.1944 2.12659 13.5938L6.02389 16.7567C7.26394 17.7631 9.06404 17.7631 10.3041 16.7567L14.2014 13.5938C14.6096 13.2626 14.8437 12.7713 14.8437 12.2461C14.8437 11.721 14.6096 11.2297 14.2014 10.8985L10.3041 7.73556C9.06452 6.72956 7.2652 6.72923 6.02511 7.73456L5.48031 8.18136C5.16343 8.44134 4.69574 8.39511 4.43583 8.07815C4.17592 7.7612 4.22208 7.29355 4.53903 7.03364L5.08847 6.58298C5.9552 5.87954 7.0474 5.49219 8.16399 5.49219C9.28057 5.49219 10.3728 5.87954 11.2395 6.58294L15.1368 9.74585C15.8938 10.3603 16.328 11.2716 16.328 12.2461C16.328 13.2206 15.8939 14.1319 15.1368 14.7463L11.2395 17.9092C10.3728 18.6127 9.28057 19 8.16399 19Z" fill="#FF5CF4"/>
</svg>
