<svg width="40" height="36" viewBox="0 0 40 36" fill="none" xmlns="http://www.w3.org/2000/svg">
<path fill-rule="evenodd" clip-rule="evenodd" d="M38.8462 16.5806C39.2747 16.5806 39.6679 16.8181 39.8674 17.1973C40.0669 17.5764 40.0398 18.035 39.797 18.3883L37.094 22.32L35.5663 24.5421C35.3511 24.8552 34.9954 25.0423 34.6155 25.0423C34.3305 25.0423 34.0591 24.937 33.8505 24.7523C33.781 24.6908 33.7184 24.6204 33.6646 24.5421L31.1158 20.8348L29.4338 18.3882C29.1911 18.0352 29.164 17.5766 29.3634 17.1973C29.5629 16.8181 29.9562 16.5806 30.3846 16.5806H31.4812C30.9003 10.7582 25.9728 6.19602 20 6.19602C15.7196 6.19602 11.9264 8.50571 9.931 12.0834L8.23709 9.61954C7.59123 8.68001 6.5249 8.11907 5.38467 8.11907C5.3024 8.11907 5.22069 8.12282 5.13936 8.1286C5.81475 7.08696 6.60139 6.11243 7.48975 5.22407C10.8313 1.88243 15.2744 0.0421143 20.0001 0.0421143C24.7258 0.0421143 29.1687 1.88243 32.5103 5.22399C35.5784 8.29219 37.381 12.2891 37.6555 16.5806H38.8462ZM34.6154 27.3498C33.4752 27.3498 32.4088 26.7888 31.763 25.8493L30.069 23.3854C28.0737 26.9631 24.2805 29.2729 20.0001 29.2729C14.0272 29.2729 9.09975 24.7107 8.51881 18.8883H9.61545C10.0439 18.8883 10.4372 18.6509 10.6366 18.2716C10.8361 17.8923 10.809 17.4338 10.5662 17.0807L8.8842 14.6341L6.33545 10.9268C6.1203 10.6138 5.76467 10.4266 5.38467 10.4266C5.33717 10.4266 5.29006 10.4295 5.2435 10.4352C5.19694 10.4409 5.15108 10.4495 5.106 10.4607C4.99334 10.4888 4.88584 10.5335 4.78717 10.5933C4.64904 10.6769 4.52795 10.7898 4.43381 10.9267L0.203029 17.0806C-0.0397051 17.4337 -0.0668145 17.8923 0.132639 18.2715C0.332092 18.6506 0.725373 18.8883 1.15389 18.8883H2.34451C2.61904 23.1798 4.42162 27.1766 7.48975 30.2448C10.8314 33.5865 15.2743 35.4268 20.0001 35.4268C24.7258 35.4268 29.1687 33.5865 32.5104 30.2448C33.3987 29.3565 34.1854 28.382 34.8608 27.3403C34.7794 27.346 34.6976 27.3498 34.6154 27.3498ZM20.8793 16.5806H19.1211C18.7878 16.5806 18.5167 16.3095 18.5167 15.9762V15.097C18.5167 14.7638 18.7878 14.4927 19.1211 14.4927H20.8793C21.2126 14.4927 21.4837 14.7638 21.4837 15.097C21.4837 15.7343 22.0003 16.2509 22.6375 16.2509C23.2747 16.2509 23.7913 15.7342 23.7913 15.097C23.7913 13.5841 22.6313 12.3373 21.1539 12.1984V11.5806C21.1539 10.9434 20.6372 10.4268 20.0001 10.4268C19.3628 10.4268 18.8462 10.9434 18.8462 11.5806V12.1984C17.3689 12.3373 16.2088 13.5841 16.2088 15.097V15.9762C16.2088 17.582 17.5151 18.8883 19.1209 18.8883H20.8791C21.2124 18.8883 21.4835 19.1594 21.4835 19.4927V20.3718C21.4835 20.705 21.2123 20.9762 20.8791 20.9762H19.1209C18.7876 20.9762 18.5165 20.7051 18.5165 20.3719C18.5165 19.7346 17.9999 19.2181 17.3627 19.2181C16.7255 19.2181 16.2089 19.7347 16.2089 20.3719C16.2089 21.8848 17.3689 23.1316 18.8463 23.2706V23.8882C18.8463 24.5255 19.363 25.042 20.0001 25.042C20.6374 25.042 21.154 24.5254 21.154 23.8882V23.2705C22.6312 23.1316 23.7914 21.8848 23.7914 20.3718V19.4927C23.7913 17.8869 22.4851 16.5806 20.8793 16.5806Z" fill="url(#paint0_linear)"/>
<defs>
<linearGradient id="paint0_linear" x1="40.0001" y1="0.0421143" x2="0" y2="0.0421143" gradientUnits="userSpaceOnUse">
<stop stop-color="#F6AF83"/>
<stop offset="0.466272" stop-color="#EB96F0"/>
<stop offset="1" stop-color="#7EC0FF"/>
</linearGradient>
</defs>
</svg>
